<?xml version="1.0" standalone="no"?>
<!DOCTYPE svg PUBLIC "-//W3C//DTD SVG 20010904//EN"
 "http://www.w3.org/TR/2001/REC-SVG-20010904/DTD/svg10.dtd">
<svg version="1.0" xmlns="http://www.w3.org/2000/svg"
 width="120.000000pt" height="45.000000pt" viewBox="0 0 295.000000 61.000000"
 preserveAspectRatio="xMidYMid meet">
<metadata>
Created by potrace 1.10, written by Peter Selinger 2001-2011
</metadata>
<g transform="translate(0.000000,61.000000) scale(0.100000,-0.100000)"
fill="#475be8" stroke="none">
<path d="M459 523 c-6 -15 -28 -73 -49 -128 -21 -55 -41 -108 -45 -117 -5 -12
-3 -18 7 -18 9 0 21 20 29 48 l15 47 60 3 60 3 15 -48 c12 -37 20 -49 38 -51
16 -3 21 0 16 8 -4 6 -28 71 -55 143 -50 140 -70 164 -91 110z m49 -85 l21
-58 -50 0 c-37 0 -50 4 -47 13 3 6 13 36 23 65 9 30 20 50 24 45 4 -4 17 -34
29 -65z"/>
<path d="M650 405 c0 -141 1 -145 21 -145 20 0 21 4 17 64 l-5 63 56 -1 c72
-1 112 19 124 61 8 25 6 38 -7 58 -23 35 -54 45 -137 45 l-69 0 0 -145z m157
101 c24 -21 26 -27 18 -52 -14 -38 -55 -57 -105 -49 l-38 6 4 57 c2 31 3 58 4
60 0 1 20 2 44 2 33 0 52 -6 73 -24z"/>
<path d="M918 405 c-37 -96 -51 -145 -42 -145 7 0 20 23 29 50 l17 51 61 -3
61 -3 15 -47 c11 -35 20 -48 34 -48 10 0 17 4 15 8 -1 5 -25 70 -53 145 -36
98 -55 137 -66 137 -11 0 -32 -42 -71 -145z m86 53 c10 -29 21 -59 23 -65 4
-9 -9 -13 -45 -13 l-50 0 22 65 c11 35 23 65 26 65 3 0 14 -24 24 -52z"/>
<path d="M1150 405 c0 -135 1 -145 19 -145 17 0 18 6 13 65 -4 61 -3 65 16 65
41 0 68 -19 102 -74 25 -40 41 -56 57 -56 21 0 19 5 -22 64 l-45 64 29 12 c40
16 57 59 39 96 -19 40 -53 54 -135 54 l-73 0 0 -145z m140 115 c77 -41 22
-131 -71 -115 l-39 7 0 52 c0 29 3 56 7 59 10 11 82 8 103 -3z"/>
<path d="M1383 538 c3 -8 21 -12 51 -11 l46 1 0 -134 c0 -111 2 -134 15 -134
12 0 15 24 17 133 l3 132 48 -3 c38 -3 47 -1 47 12 0 14 -17 16 -116 16 -88 0
-115 -3 -111 -12z"/>
<path d="M1660 405 l0 -145 100 0 c60 0 100 4 100 10 0 6 -35 10 -85 10 l-85
0 0 55 0 55 65 0 c37 0 65 4 65 10 0 6 -28 10 -65 10 l-65 0 0 58 0 59 80 -5
c69 -4 80 -2 80 12 0 14 -14 16 -95 16 l-95 0 0 -145z"/>
<path d="M1981 538 c-47 -26 -66 -64 -66 -136 0 -84 25 -126 86 -142 41 -11
112 1 125 21 9 15 -4 23 -18 11 -13 -10 -54 -16 -96 -14 -40 3 -64 56 -60 136
3 60 7 71 31 92 16 13 40 24 55 24 27 0 69 -23 84 -44 4 -6 10 -7 14 -3 5 4
-4 19 -18 33 -30 31 -100 42 -137 22z"/>
<path d="M2190 405 c0 -122 2 -145 15 -145 12 0 15 14 15 65 l0 65 80 0 80 0
0 -65 c0 -51 3 -65 15 -65 13 0 15 23 15 145 0 122 -2 145 -15 145 -12 0 -15
-14 -15 -70 l0 -70 -80 0 -80 0 0 70 c0 56 -3 70 -15 70 -13 0 -15 -23 -15
-145z"/>
</g>
</svg>
