<?xml version="1.0" standalone="no"?>
<!DOCTYPE svg PUBLIC "-//W3C//DTD SVG 20010904//EN"
 "http://www.w3.org/TR/2001/REC-SVG-20010904/DTD/svg10.dtd">
<svg version="1.0" xmlns="http://www.w3.org/2000/svg"
 width="300.000000pt" height="200.000000pt" viewBox="0 0 250.000000 150.000000"
 preserveAspectRatio="xMidYMid meet">
<metadata>
Created by potrace 1.10, written by Peter Selinger 2001-2011
</metadata>
<g transform="translate(-40.00000,200.000000) scale(0.100000,-0.100000)"
fill="blue" stroke="none">
<path d="M630 1542 c-74 -29 -117 -52 -137 -74 -17 -18 -18 -46 -21 -335 l-3
-315 39 -37 c25 -23 44 -51 51 -77 13 -47 34 -69 76 -80 16 -4 48 -21 70 -37
36 -26 46 -28 93 -24 43 5 63 1 105 -19 29 -13 57 -24 64 -24 18 0 192 119
203 140 5 10 12 42 16 71 5 45 3 58 -14 79 -20 25 -23 26 -141 25 -72 0 -123
4 -125 10 -3 7 -7 7 -13 0 -11 -13 -53 -12 -80 3 -16 9 -22 9 -25 1 -5 -16
-54 10 -97 51 -47 46 -74 111 -66 161 17 97 118 183 213 181 26 -1 103 -3 172
-5 155 -5 170 1 170 72 0 31 -5 53 -15 61 -8 7 -15 20 -15 29 0 30 -91 91
-135 91 -8 0 -15 5 -15 11 0 5 -8 9 -17 7 -10 -1 -29 5 -42 14 -13 10 -28 15
-33 12 -5 -3 -24 1 -43 10 -23 11 -41 13 -57 7 -12 -4 -32 -6 -43 -4 -60 12
-94 11 -135 -5z m112 -27 c31 -12 38 -12 57 1 27 19 45 15 166 -36 49 -20 107
-43 128 -50 44 -14 46 -22 10 -40 l-28 -13 43 -14 c38 -13 57 -33 31 -33 -6 0
-34 -16 -63 -35 -45 -30 -62 -35 -110 -35 -37 0 -70 7 -97 20 -39 21 -40 21
-66 2 l-26 -19 -83 38 c-45 22 -87 39 -93 39 -21 0 -11 17 21 31 l31 15 -81
34 c-45 18 -81 35 -79 36 6 6 183 73 193 74 6 0 27 -7 46 -15z m-177 -109 c48
-22 49 -23 28 -35 l-23 -12 0 -294 0 -295 -35 22 -35 23 0 308 c0 169 3 307 8
306 4 0 30 -10 57 -23z m97 -106 c34 -16 69 -30 76 -30 22 0 13 -17 -17 -29
-123 -52 -161 -242 -69 -347 30 -34 94 -74 120 -74 10 0 13 -29 13 -120 0 -66
-3 -120 -7 -120 -4 0 -23 8 -42 18 -25 12 -36 24 -36 40 0 26 -17 30 -23 5 -4
-14 -5 -13 -6 4 -1 25 -21 42 -21 19 0 -19 -2 -19 -35 -4 l-25 11 0 329 c0
180 2 328 4 328 2 0 33 -13 68 -30z m498 -10 c0 -28 -2 -30 -40 -30 -22 0 -40
3 -40 8 0 5 66 49 78 52 1 0 2 -13 2 -30z m-319 -582 c-3 -95 -9 -117 -33
-118 -5 0 -8 50 -8 110 0 107 1 110 23 110 22 0 22 -2 18 -102z m139 -33 l0
-135 -60 30 -60 30 0 105 0 105 60 0 60 0 0 -135z m64 108 c-41 -38 -14 -41
37 -4 66 49 79 43 79 -32 l0 -63 -70 -52 c-39 -29 -76 -55 -83 -58 -9 -3 -11
25 -9 116 l3 120 36 0 36 0 -29 -27z"/>
<path d="M790 1486 c-24 -14 -23 -14 45 -46 l70 -31 38 18 39 19 -66 27 c-75
30 -91 32 -126 13z"/>
<path d="M760 1418 c0 -32 4 -36 65 -66 36 -18 68 -32 70 -32 3 0 5 15 5 33 0
31 -4 36 -62 63 -34 16 -66 31 -70 32 -4 2 -8 -11 -8 -30z"/>
<path d="M942 1397 c-21 -22 -31 -77 -14 -77 18 0 52 48 52 73 0 33 -10 34
-38 4z"/>
<path d="M620 1241 c0 -17 18 -31 41 -31 19 0 8 27 -16 38 -22 10 -25 9 -25
-7z"/>
<path d="M620 841 c0 -10 11 -23 25 -29 22 -10 25 -9 25 7 0 10 -11 23 -25 29
-22 10 -25 9 -25 -7z"/>
<path d="M690 801 c0 -10 11 -23 25 -29 22 -10 25 -9 25 7 0 10 -11 23 -25 29
-22 10 -25 9 -25 -7z"/>
<path d="M620 742 c0 -11 11 -24 25 -30 21 -10 25 -9 25 5 0 15 -27 42 -42 43
-5 0 -8 -8 -8 -18z"/>
<path d="M690 706 c0 -7 11 -21 25 -30 23 -15 25 -15 25 0 0 16 -26 43 -42 44
-5 0 -8 -6 -8 -14z"/>
<path d="M1078 717 c-45 -30 -64 -54 -54 -65 11 -10 106 61 106 79 0 10 -1 19
-2 18 -2 0 -24 -15 -50 -32z"/>
<path d="M1371 1124 c-19 -16 -31 -35 -31 -51 0 -18 -5 -24 -17 -21 -10 2 -18
10 -18 18 -1 28 -30 55 -62 58 -25 2 -38 -4 -61 -27 -32 -34 -52 -40 -52 -16
0 23 -48 48 -98 51 -57 3 -100 -18 -108 -54 -3 -15 -7 -31 -8 -36 -1 -5 -16
10 -32 35 -27 40 -34 44 -69 44 -33 0 -43 -5 -61 -33 -13 -18 -30 -56 -39 -83
-21 -64 -9 -84 44 -74 39 6 47 7 136 2 33 -1 65 -6 71 -9 12 -8 64 12 64 25 0
4 11 5 25 1 16 -4 25 -2 25 6 0 15 41 2 56 -18 8 -11 19 -13 40 -7 32 8 41 8
159 1 45 -2 85 0 92 5 8 7 21 5 40 -5 45 -22 78 -3 80 48 1 49 19 68 39 42 8
-11 14 -30 14 -41 0 -29 33 -57 61 -53 24 3 44 33 54 81 8 40 35 35 35 -7 0
-22 9 -45 23 -62 22 -26 25 -26 96 -19 60 6 74 11 78 26 6 23 23 25 23 4 0
-14 12 -20 34 -16 4 1 13 -3 20 -8 15 -12 92 -7 109 8 10 8 22 7 46 -2 27 -10
37 -9 61 5 25 14 31 14 47 2 52 -39 93 -3 93 82 0 51 -4 65 -28 93 -28 34 -28
34 -50 15 -12 -10 -22 -24 -22 -30 0 -8 -14 -5 -40 9 -33 18 -43 20 -59 10
-16 -10 -27 -10 -53 1 -40 17 -99 13 -137 -10 -28 -16 -30 -16 -57 5 -33 26
-114 28 -152 4 -18 -11 -27 -12 -37 -3 -24 20 -134 22 -172 4 -30 -15 -36 -15
-68 0 -20 10 -44 14 -56 11 -11 -4 -26 -2 -33 4 -11 9 -21 5 -45 -15z m-501
-86 c19 -40 36 -76 38 -80 8 -16 -41 -7 -53 8 -18 25 -76 27 -82 3 -3 -12 -14
-19 -29 -19 -13 0 -24 2 -24 5 0 2 17 38 37 80 50 101 68 102 113 3z m216 57
c18 -11 24 -25 24 -50 0 -40 -20 -55 -74 -55 -29 0 -36 -4 -36 -20 0 -15 -7
-20 -25 -20 -24 0 -25 2 -25 73 0 41 2 76 5 79 13 12 109 7 131 -7z m199 -57
c19 -39 35 -75 35 -80 0 -15 -39 -8 -49 10 -12 22 -70 22 -83 -1 -9 -17 -48
-24 -48 -9 0 5 16 41 35 80 46 96 62 96 110 0z m209 62 c34 -12 44 -54 21 -80
-17 -19 -17 -21 -2 -38 23 -25 21 -32 -8 -32 -17 0 -29 8 -37 25 -7 17 -19 25
-36 25 -21 0 -23 -3 -18 -25 6 -22 3 -25 -19 -25 -25 0 -25 1 -25 80 l0 80 49
0 c27 0 61 -4 75 -10z m246 -17 c0 -21 -4 -24 -32 -21 l-33 3 3 -57 c4 -57 3
-58 -22 -58 -25 0 -26 2 -26 60 l0 60 -30 -6 c-27 -6 -30 -4 -30 19 0 25 1 25
85 25 84 0 85 0 85 -25z m190 3 c0 -22 -4 -24 -47 -22 -60 1 -74 -18 -15 -22
28 -2 42 -8 42 -18 0 -10 -12 -14 -40 -14 -22 0 -40 -4 -40 -10 0 -5 23 -10
50 -10 43 0 50 -3 50 -20 0 -18 -7 -20 -75 -20 l-75 0 0 80 0 80 75 0 c72 0
75 -1 75 -24z m188 18 c13 -4 22 -14 22 -25 0 -16 -8 -19 -55 -19 -54 0 -55 0
-55 -29 0 -35 22 -45 75 -35 34 6 37 5 33 -17 -2 -20 -10 -25 -42 -27 -78 -7
-116 18 -116 74 0 65 60 99 138 78z m112 -29 c0 -33 2 -35 35 -35 33 0 35 2
35 35 0 31 3 35 25 35 25 0 25 -1 25 -80 0 -79 0 -80 -25 -80 -21 0 -25 5 -25
30 0 28 -3 30 -35 30 -32 0 -35 -2 -35 -30 0 -25 -4 -30 -25 -30 -25 0 -25 1
-25 80 0 79 0 80 25 80 22 0 25 -4 25 -35z"/>
<path d="M1007 1063 c-4 -3 -7 -12 -7 -20 0 -16 56 -18 66 -2 12 20 -42 40
-59 22z"/>
<path d="M1217 1040 c-4 -15 0 -20 14 -20 21 0 22 1 13 24 -8 22 -21 20 -27
-4z"/>
<path d="M1417 1064 c-15 -16 -5 -24 29 -24 24 0 34 4 32 13 -5 13 -50 22 -61
11z"/>
</g>
</svg>
