<?xml version="1.0" standalone="no"?>
<!DOCTYPE svg PUBLIC "-//W3C//DTD SVG 20010904//EN"
 "http://www.w3.org/TR/2001/REC-SVG-20010904/DTD/svg10.dtd">
<svg version="1.0" xmlns="http://www.w3.org/2000/svg"
 width="100.000000pt" height="40.000000pt" viewBox="0 0 109.000000 112.000000"
 preserveAspectRatio="xMidYMid meet">
<metadata>
Created by potrace 1.16, written by Peter Selinger 2001-2019
</metadata>
<g transform="translate(-109.000000,112.000000) scale(0.100000,-0.100000)"
fill="#475be8" stroke="none">
<path d="M506 844 l-46 -56 -2 -232 -3 -231 -2 223 c-2 123 -7 222 -11 220 -4
-2 -27 -24 -50 -49 l-42 -46 0 -147 c0 -81 -4 -146 -9 -146 -5 0 -19 20 -31
44 -18 37 -20 51 -11 81 8 31 8 35 -4 25 -47 -39 -38 -135 17 -187 61 -57 93
-68 203 -68 114 0 158 16 213 79 43 49 49 92 23 152 -25 56 -34 55 -19 -2 10
-35 9 -47 -8 -80 -37 -70 -44 -57 -44 81 l0 127 -41 49 c-22 27 -45 49 -50 49
-5 0 -10 -91 -12 -202 -2 -177 -3 -166 -5 85 -1 158 -6 287 -11 287 -5 0 -29
-25 -55 -56z"/>
</g>
</svg>
